<?xml version="1.0" ?><!DOCTYPE svg  PUBLIC '-//W3C//DTD SVG 1.1//EN'  'http://www.w3.org/Graphics/SVG/1.1/DTD/svg11.dtd'><svg enable-background="new 0 0 64 64" height="64px" id="Layer_1" version="1.1" viewBox="0 0 64 64" width="64px" xml:space="preserve" xmlns="http://www.w3.org/2000/svg" xmlns:xlink="http://www.w3.org/1999/xlink"><g><path d="   M13,28.9v-3.1c0-8.8,7.2-16,16-16l0,0c8.8,0,16,7.2,16,16v3.1" fill="none" stroke="#4D4D4D" stroke-linecap="round" stroke-linejoin="round" stroke-miterlimit="10" stroke-width="2"/><path d="M45,44.5l2.6-9.7   c0.1-0.4,0.1-0.7,0.1-1.1c0,0,0.1,0,0.1,0c1.9,0.5,3.1,2.5,2.6,4.5l-1.3,5c-0.5,1.9-2.5,3.1-4.5,2.6c-0.1,0-0.1,0-0.2-0.1   C44.7,45.3,44.9,44.9,45,44.5z" fill="none" stroke="#4D4D4D" stroke-linecap="round" stroke-linejoin="round" stroke-miterlimit="10"/><path d="   M36.2,42.1c-0.6,2.4,0.8,4.9,3.2,5.6l0,0c2.4,0.7,4.9-0.8,5.6-3.2l2.6-9.7c0.6-2.4-0.8-4.9-3.2-5.6l0,0c-2.4-0.6-4.9,0.8-5.6,3.2   L36.2,42.1z" fill="none" stroke="#4D4D4D" stroke-linecap="round" stroke-linejoin="round" stroke-miterlimit="10" stroke-width="2"/><path d="M12.5,44.5l-2.6-9.7   c-0.1-0.4-0.1-0.7-0.1-1.1c0,0-0.1,0-0.1,0c-1.9,0.5-3.1,2.5-2.6,4.5l1.3,5c0.5,1.9,2.5,3.1,4.5,2.6c0.1,0,0.1,0,0.2-0.1   C12.8,45.3,12.6,44.9,12.5,44.5z" fill="none" stroke="#4D4D4D" stroke-linecap="round" stroke-linejoin="round" stroke-miterlimit="10"/><path d="   M21.2,42.1c0.6,2.4-0.8,4.9-3.2,5.6l0,0c-2.4,0.7-4.9-0.8-5.6-3.2l-2.6-9.7c-0.6-2.4,0.8-4.9,3.2-5.6l0,0c2.4-0.6,4.9,0.8,5.6,3.2   L21.2,42.1z" fill="none" stroke="#4D4D4D" stroke-linecap="round" stroke-linejoin="round" stroke-miterlimit="10" stroke-width="2"/><path d="   M41.9,47.9c0,0,1.8,0,4.1,0c2.2,0,4.1,1.4,4.1,3.2s1.6,3.2,3.5,3.2s3.5,0,3.5,0" fill="none" stroke="#4D4D4D" stroke-linecap="round" stroke-linejoin="round" stroke-miterlimit="10" stroke-width="2"/></g></svg>